<svg width="20" height="19" viewBox="0 0 20 19" fill="none" xmlns="http://www.w3.org/2000/svg">
<path d="M12.7594 16.1941L12.1692 15.7313L12.7594 16.1941ZM8.24061 16.1941L7.65043 16.657L8.24061 16.1941ZM10.5 18.0669V17.3169V18.0669ZM16.25 7.99456C16.25 8.95226 15.7468 10.2584 14.9306 11.7013C14.1311 13.1148 13.0963 14.5491 12.1692 15.7313L13.3496 16.657C14.2992 15.446 15.3846 13.9454 16.2363 12.4398C17.0713 10.9635 17.75 9.36649 17.75 7.99456H16.25ZM8.83078 15.7313C7.90372 14.5491 6.86887 13.1148 6.06936 11.7013C5.25324 10.2584 4.75 8.95226 4.75 7.99456H3.25C3.25 9.36649 3.92873 10.9635 4.76374 12.4398C5.61536 13.9454 6.70082 15.446 7.65043 16.657L8.83078 15.7313ZM4.75 7.99456C4.75 4.49304 7.37521 1.75 10.5 1.75V0.25C6.44509 0.25 3.25 3.7701 3.25 7.99456H4.75ZM10.5 1.75C13.6248 1.75 16.25 4.49304 16.25 7.99456H17.75C17.75 3.7701 14.5549 0.25 10.5 0.25V1.75ZM12.1692 15.7313C11.6632 16.3766 11.3404 16.7841 11.0548 17.0436C10.8012 17.2739 10.6529 17.3169 10.5 17.3169V18.8169C11.1378 18.8169 11.6297 18.5479 12.0634 18.1539C12.4649 17.7891 12.8765 17.2603 13.3496 16.657L12.1692 15.7313ZM7.65043 16.657C8.12354 17.2603 8.53506 17.7891 8.93664 18.1539C9.37035 18.5479 9.86218 18.8169 10.5 18.8169V17.3169C10.3471 17.3169 10.1988 17.2739 9.94522 17.0436C9.65957 16.7841 9.33677 16.3766 8.83078 15.7313L7.65043 16.657ZM7.3125 8.3125C7.3125 10.0729 8.73959 11.5 10.5 11.5V10C9.56802 10 8.8125 9.24448 8.8125 8.3125H7.3125ZM10.5 11.5C12.2604 11.5 13.6875 10.0729 13.6875 8.3125H12.1875C12.1875 9.24448 11.432 10 10.5 10V11.5ZM13.6875 8.3125C13.6875 6.55209 12.2604 5.125 10.5 5.125V6.625C11.432 6.625 12.1875 7.38052 12.1875 8.3125H13.6875ZM10.5 5.125C8.73959 5.125 7.3125 6.55209 7.3125 8.3125H8.8125C8.8125 7.38052 9.56802 6.625 10.5 6.625V5.125Z" fill="#EEEEEE"/>
</svg>
