<svg width="22" height="20" viewBox="0 0 22 20" fill="none" xmlns="http://www.w3.org/2000/svg">
<path d="M5.43644 4.24804C5.49407 4.19665 5.52288 4.17096 5.54827 4.15016C6.17246 3.63875 7.13188 3.63875 7.75607 4.15016C7.78146 4.17096 7.81027 4.19665 7.8679 4.24804L9.05744 5.30871C9.71173 5.89212 9.89885 6.77316 9.52912 7.52949C9.15938 8.28581 9.34651 9.16685 10.0008 9.75026L11.956 11.4937C12.6103 12.0771 13.5984 12.2439 14.4466 11.9142C15.2948 11.5846 16.2829 11.7514 16.9372 12.3348L18.1267 13.3955C18.1844 13.4469 18.2132 13.4726 18.2365 13.4952C18.8101 14.0518 18.8101 14.9073 18.2365 15.4638C18.2132 15.4865 18.1844 15.5122 18.1267 15.5636L17.4037 16.2083C16.8149 16.7333 15.9661 16.9537 15.1532 16.7926C9.61447 15.6951 5.28886 11.8381 4.05804 6.89947C3.8774 6.17465 4.12458 5.41778 4.71339 4.89276L5.43644 4.24804Z" stroke="#EEEEEE" stroke-width="1.5"/>
</svg>
