<svg width="22" height="19" viewBox="0 0 22 19" fill="none" xmlns="http://www.w3.org/2000/svg">
<path fill-rule="evenodd" clip-rule="evenodd" d="M14.3672 1.69116C13.4139 1.60204 12.2124 1.60204 10.6795 1.60205H8.93469C7.40183 1.60204 6.20027 1.60204 5.24699 1.69116C4.27418 1.7821 3.48595 1.97102 2.81296 2.39293C2.40553 2.64835 2.04723 2.95752 1.75122 3.30908C1.62217 3.46234 1.51081 3.62388 1.41504 3.79537C1.10604 4.34871 0.968308 4.9906 0.901218 5.75687C0.834642 6.51727 0.834644 7.45056 0.834647 8.60301V8.62393C0.834647 8.92224 1.11491 9.16407 1.46063 9.16407C1.80635 9.16407 2.08662 8.92224 2.08662 8.62393C2.08662 7.44628 2.08702 6.55332 2.14963 5.83825C2.17631 5.53352 2.21374 5.27043 2.26416 5.0398L3.49649 6.10315C4.85886 7.2787 5.92651 8.19996 6.87155 8.82212C7.83885 9.45894 8.75089 9.83308 9.8071 9.83308C10.8633 9.83308 11.7754 9.45894 12.7427 8.82212C13.6877 8.19997 14.7553 7.27872 16.1177 6.10318L17.35 5.0398C17.4005 5.27043 17.4379 5.53352 17.4646 5.83825C17.5272 6.55332 17.5276 7.44628 17.5276 8.62393C17.5276 9.98622 17.5267 10.9646 17.4316 11.7222C17.3377 12.4697 17.1582 12.9379 16.8501 13.3038C16.6313 13.5636 16.3665 13.7922 16.0654 13.9809C15.6414 14.2468 15.0987 14.4017 14.2324 14.4827C13.3544 14.5648 12.2205 14.5655 10.6417 14.5655H8.97245C8.62673 14.5655 8.34647 14.8073 8.34647 15.1057C8.34647 15.404 8.62673 15.6458 8.97245 15.6458H10.6795C12.2124 15.6458 13.4139 15.6458 14.3672 15.5567C15.34 15.4657 16.1283 15.2768 16.8012 14.8549C17.2087 14.5995 17.567 14.2903 17.863 13.9388C18.3519 13.3581 18.5709 12.6779 18.6763 11.8385C18.7796 11.016 18.7796 9.97921 18.7796 8.65658V8.60305C18.7796 7.45058 18.7796 6.51728 18.713 5.75687C18.6459 4.9906 18.5082 4.34871 18.1992 3.79537C18.1034 3.62388 17.992 3.46234 17.863 3.30908C17.567 2.95752 17.2087 2.64835 16.8012 2.39293C16.1283 1.97102 15.34 1.7821 14.3672 1.69116ZM4.34789 5.31003L2.7644 3.94368C2.98313 3.68399 3.24785 3.4556 3.54885 3.2669C3.97285 3.00109 4.51555 2.84615 5.38184 2.76516C6.25985 2.68308 7.39366 2.68234 8.97245 2.68234H10.6417C12.2205 2.68234 13.3544 2.68308 14.2324 2.76516C15.0987 2.84615 15.6414 3.00109 16.0654 3.2669C16.3664 3.4556 16.6311 3.68399 16.8498 3.94368L15.2663 5.31003C13.8627 6.52115 12.8536 7.39026 11.9832 7.96327C11.1273 8.52677 10.4795 8.75279 9.8071 8.75279C9.1347 8.75279 8.4869 8.52677 7.63097 7.96327C6.76059 7.39026 5.75149 6.52115 4.34789 5.31003Z" fill="#EEEEEE"/>
<path d="M0.625985 10.9646C0.280263 10.9646 0 11.2064 0 11.5047C0 11.803 0.280263 12.0448 0.625985 12.0448H3.12993C3.47565 12.0448 3.75591 11.803 3.75591 11.5047C3.75591 11.2064 3.47565 10.9646 3.12993 10.9646H0.625985Z" fill="#EEEEEE"/>
<path d="M0.625985 13.1251C0.280263 13.1251 0 13.367 0 13.6653C0 13.9636 0.280263 14.2054 0.625985 14.2054H5.63387C5.97959 14.2054 6.25985 13.9636 6.25985 13.6653C6.25985 13.367 5.97959 13.1251 5.63387 13.1251H0.625985Z" fill="#EEEEEE"/>
</svg>
