<svg width="21" height="23" viewBox="0 0 21 23" fill="none" xmlns="http://www.w3.org/2000/svg">
<rect width="20.7545" height="22.5037" rx="10.3773" fill="#222831"/>
<path d="M8.15359 13.6628L8.15359 15.8283C8.15359 16.6291 8.15359 17.0295 7.9374 17.3024C7.88958 17.3627 7.83494 17.4174 7.77458 17.4652C7.50171 17.6814 7.10131 17.6814 6.30051 17.6814V17.6814C5.4997 17.6814 5.0993 17.6814 4.82643 17.4652C4.76607 17.4174 4.71143 17.3627 4.66361 17.3024C4.44743 17.0295 4.44743 16.6291 4.44743 15.8283L4.44743 15.6628C4.44743 14.72 4.44743 14.2486 4.74032 13.9557C5.03321 13.6628 5.50462 13.6628 6.44743 13.6628L8.15359 13.6628Z" stroke="#EEEEEE" stroke-width="2"/>
<path d="M12.601 8.84058L12.601 6.67514C12.601 5.87433 12.601 5.47393 12.8172 5.20107C12.865 5.1407 12.9196 5.08607 12.98 5.03824C13.2529 4.82206 13.6533 4.82206 14.4541 4.82206V4.82206C15.2549 4.82206 15.6553 4.82206 15.9281 5.03824C15.9885 5.08607 16.0431 5.1407 16.091 5.20107C16.3071 5.47393 16.3071 5.87433 16.3071 6.67514L16.3071 6.84058C16.3071 7.78339 16.3071 8.25479 16.0143 8.54768C15.7214 8.84058 15.25 8.84058 14.3071 8.84058L12.601 8.84058Z" stroke="#EEEEEE" stroke-width="2"/>
<path d="M12.601 8.84058L8.15359 13.6628" stroke="#EEEEEE" stroke-width="2"/>
</svg>
